<?xml version="1.0" encoding="UTF-8" standalone="no"?>
<svg
   xmlns:dc="http://purl.org/dc/elements/1.1/"
   xmlns:cc="http://creativecommons.org/ns#"
   xmlns:rdf="http://www.w3.org/1999/02/22-rdf-syntax-ns#"
   xmlns:svg="http://www.w3.org/2000/svg"
   xmlns="http://www.w3.org/2000/svg"
   id="svg8"
   version="1.1"
   viewBox="0 0 156.23615 180.4048"
   height="180.4048mm"
   width="156.23615mm">
  <defs
     id="defs2" />
  <metadata
     id="metadata5">
    <rdf:RDF>
      <cc:Work
         rdf:about="">
        <dc:format>image/svg+xml</dc:format>
        <dc:type
           rdf:resource="http://purl.org/dc/dcmitype/StillImage" />
        <dc:title></dc:title>
      </cc:Work>
    </rdf:RDF>
  </metadata>
  <g
     transform="translate(-26.837781,-61.008052)"
     id="layer1">
    <g
       transform="matrix(2.7218297,0,0,2.7218297,-75.793548,-142.45986)"
       style="fill:#87aade;stroke:none;stroke-opacity:1"
       id="g1860">
      <path
         style="fill:#87aade;fill-opacity:1;stroke:none;stroke-width:0.99999994;stroke-opacity:1"
         d="m 142.51367,345.16406 v 25.05078 25.05078 25.05079 25.05078 25.05078 l 21.69531,12.52539 21.69532,12.52539 21.69531,12.52539 21.69336,12.52539 21.69531,12.52539 V 507.99414 L 229.29297,495.46875 207.59961,482.94336 185.9043,470.41797 164.20898,457.89258 V 432.8418 407.79102 382.74023 357.68945 Z"
         id="path1023"
         transform="scale(0.26458333)" />
      <path
         style="fill:#87aade;fill-opacity:1;stroke:none;stroke-width:0.99999994;stroke-opacity:1"
         d="m 207.59961,382.74023 v 25.05079 l -21.69531,-12.5254 v 25.05079 l 21.69531,12.52539 v 25.05078 l 21.69336,12.52539 v -25.05078 l 21.69531,12.52539 V 432.8418 l -21.69531,-12.52539 v -25.05079 z"
         id="path1159"
         transform="scale(0.26458333)" />
      <path
         d="m 54.927141,101.2666 0,-6.628066 5.740076,3.314034 z"
         id="path1219"
         style="fill:#87aade;fill-opacity:1;stroke:none;stroke-width:0.26458332;stroke-opacity:1" />
      <path
         style="fill:#87aade;fill-opacity:1;stroke:none;stroke-width:0.99999994;stroke-opacity:1"
         d="m 250.98828,307.58789 v 25.05078 l 21.69531,12.52539 21.69336,12.52539 21.69532,12.52539 21.69531,12.52539 v -25.05078 l -21.69531,-12.52539 -21.69532,-12.52539 -21.69336,-12.52539 z"
         id="path1339"
         transform="scale(0.26458333)" />
      <path
         style="fill:#87aade;fill-opacity:1;stroke:none;stroke-width:0.99999994;stroke-opacity:1"
         d="m 250.98828,382.74023 v 25.05079 l 21.69531,12.52539 v -25.05079 z"
         transform="scale(0.26458333)"
         id="path1351" />
      <path
         transform="scale(-1,1)"
         style="fill:#87aade;fill-opacity:1;stroke:none;stroke-width:0.26458332;stroke-opacity:1"
         id="path1365"
         d="m -72.147375,124.46484 0,-6.62806 5.740076,3.31403 z" />
    </g>
    <g
       transform="matrix(2.7218297,0,0,2.7218297,-75.793548,-142.45986)"
       style="fill:#d7e3f4;fill-opacity:1;stroke:none;stroke-opacity:1"
       id="g1877">
      <path
         style="fill:#d7e3f4;fill-opacity:1;stroke:none;stroke-width:0.99999994;stroke-opacity:1"
         d="m 250.98828,282.53516 -21.69531,12.52734 -21.69336,12.52539 -21.69531,12.52539 -21.69532,12.52539 -21.69531,12.52539 21.69531,12.52539 21.69532,-12.52539 21.69531,-12.52539 21.69336,-12.52539 21.69531,-12.52539 21.69531,12.52539 21.69336,12.52539 21.69532,12.52539 21.69531,12.52539 21.69531,-12.52539 -21.69531,-12.52539 -21.69531,-12.52539 -21.69532,-12.52539 -21.69336,-12.52539 z"
         id="path1021"
         transform="scale(0.26458333)" />
      <path
         style="fill:#d7e3f4;fill-opacity:1;stroke:none;stroke-width:0.99999994;stroke-opacity:1"
         d="m 337.76758,432.8418 -21.69531,12.52539 -21.69532,12.52539 -21.69336,12.52539 -21.69531,12.52539 -21.69531,-12.52539 -21.69336,-12.52539 -21.69531,-12.52539 -21.69532,12.52539 21.69532,12.52539 21.69531,12.52539 21.69336,12.52539 21.69531,12.52539 21.69531,-12.52539 21.69336,-12.52539 21.69532,-12.52539 21.69531,-12.52539 21.69531,-12.52539 z"
         id="path1109"
         transform="scale(0.26458333)" />
      <path
         d="m -54.927153,107.89468 0,-6.62807 5.740076,3.31403 z"
         id="path1157"
         style="fill:#d7e3f4;fill-opacity:1;stroke:none;stroke-width:0.26458332;stroke-opacity:1"
         transform="scale(-1,1)" />
      <path
         style="fill:#d7e3f4;fill-opacity:1;stroke:none;stroke-width:0.99999994;stroke-opacity:1"
         d="m 229.29297,345.16406 -21.69336,12.52539 21.69336,12.52539 -21.69336,12.52539 21.69336,12.52539 21.69531,-12.52539 21.69531,12.52539 21.69336,-12.52539 -21.69336,-12.52539 21.69336,-12.52539 -21.69336,-12.52539 -21.69531,12.52539 z"
         transform="scale(0.26458333)"
         id="path1217" />
      <path
         style="fill:#d7e3f4;fill-opacity:1;stroke:none;stroke-width:0.99999994;stroke-opacity:1"
         d="m 250.98828,407.79102 -21.69531,12.52539 21.69531,12.52539 21.69531,-12.52539 z"
         transform="scale(0.26458333)"
         id="path1289" />
      <path
         d="m 77.887453,107.89466 0,-6.62807 5.740076,3.31404 z"
         id="path1479"
         style="fill:#d7e3f4;fill-opacity:1;stroke:none;stroke-width:0.26458332;stroke-opacity:1" />
    </g>
    <g
       transform="matrix(2.7218297,0,0,2.7218297,-75.793548,-142.45986)"
       style="fill:#2c5aa0;stroke:none;stroke-opacity:1"
       id="g1869">
      <path
         style="fill:#2c5aa0;fill-opacity:1;stroke:none;stroke-width:0.99999994;stroke-opacity:1"
         d="m 250.98828,307.58789 -21.69531,12.52539 -21.69336,12.52539 -21.69531,12.52539 -21.69532,12.52539 v 25.05078 25.05079 25.05078 25.05078 l 21.69532,-12.52539 v -25.05078 -25.05079 -25.05078 l 21.69531,-12.52539 21.69336,-12.52539 21.69531,-12.52539 z"
         id="path1089"
         transform="scale(0.26458333)" />
      <path
         style="fill:#2c5aa0;fill-opacity:1;stroke:none;stroke-width:0.99999994;stroke-opacity:1"
         d="m 250.98828,382.74023 -21.69531,12.52539 v 25.05079 l 21.69531,-12.52539 z"
         transform="scale(0.26458333)"
         id="path1285" />
      <path
         style="fill:#2c5aa0;fill-opacity:1;stroke:none;stroke-width:0.26458332;stroke-opacity:1"
         id="path1299"
         d="m 60.667223,124.46484 0,-6.62807 5.740076,3.31403 z" />
      <path
         style="fill:#2c5aa0;fill-opacity:1;stroke:none;stroke-width:0.99999994;stroke-opacity:1"
         d="m 294.37695,382.74023 -21.69336,12.52539 v 25.05079 l -21.69531,12.52539 v 25.05078 l 21.69531,-12.52539 v 25.05078 l 21.69336,-12.52539 V 432.8418 l 21.69532,-12.52539 v -25.05079 l -21.69532,12.5254 z"
         id="path1361"
         transform="scale(0.26458333)" />
      <path
         style="fill:#2c5aa0;fill-opacity:1;stroke:none;stroke-width:0.99999994;stroke-opacity:1"
         d="m 359.46289,445.36719 -21.69531,12.52539 -21.69531,12.52539 -21.69532,12.52539 -21.69336,12.52539 -21.69531,12.52539 v 25.05078 l 21.69531,-12.52539 21.69336,-12.52539 21.69532,-12.52539 21.69531,-12.52539 21.69531,-12.52539 z"
         id="path1373"
         transform="scale(0.26458333)" />
      <path
         transform="scale(-1,1)"
         style="fill:#2c5aa0;fill-opacity:1;stroke:none;stroke-width:0.26458332;stroke-opacity:1"
         id="path1409"
         d="m -77.887449,101.26661 0,-6.628069 5.740076,3.314035 z" />
      <path
         style="fill:#2c5aa0;fill-opacity:1;stroke:none;stroke-width:0.99999994;stroke-opacity:1"
         d="m 359.46289,345.16406 -21.69531,12.52539 v 25.05078 l 21.69531,-12.52539 z"
         id="path1601"
         transform="scale(0.26458333)" />
    </g>
  </g>
</svg>
